<svg xmlns="http://www.w3.org/2000/svg" width="16" height="12" viewBox="0 0 16 12">
  <defs>
    <style>
      .cls-1 {
        fill: #fff;
        fill-rule: evenodd;
        opacity: 0.33;
      }
    </style>
  </defs>
  <path id="Image_2_copy" data-name="Image 2 copy" class="cls-1" d="M800,644H788a1,1,0,0,1-1-1v-8a1,1,0,0,1,1-1h12a1,1,0,0,1,1,1v8A1,1,0,0,1,800,644Zm0-8a1,1,0,0,0-1-1H789a1,1,0,0,0-1,1v6a1,1,0,0,0,1,1h10a1,1,0,0,0,1-1v-6Zm-8,2.582c1.012,0.12,1.971,2.114,1.971,2.114s2.451-3.806,2.824-3.625a15.155,15.155,0,0,1,2.185,4.712l-9.964.061S790.986,638.461,792,638.582Zm-0.639-.54a0.674,0.674,0,1,1,.674-0.674A0.673,0.673,0,0,1,791.359,638.042ZM785,645h14v1H785v-1Zm0-9h1v10h-1V636Z" transform="translate(-785 -634)"/>
</svg>
