<svg xmlns="http://www.w3.org/2000/svg" width="9.031" height="11.22" viewBox="0 0 9.031 11.22">
  <defs>
    <style>
      .cls-1 {
        fill: #fff;
        fill-rule: evenodd;
        opacity: 0.55;
      }
    </style>
  </defs>
  <path id="User" class="cls-1" d="M461.768,1242.84a3.489,3.489,0,0,1,1.339.37c1.74,0.83,1.88,3.85,1.88,3.85h-9.026s0.138-3.02,1.854-3.85a3.429,3.429,0,0,1,1.506-.38,3.536,3.536,0,0,0-.319-1.41c-1.986-1.31-.855-5.26,1.215-5.55,2.988-.41,3.515,4.08,2.118,5.57A2.137,2.137,0,0,0,461.768,1242.84Zm-1.325.28a0.339,0.339,0,0,1,.028-0.02H460.4A0.069,0.069,0,0,1,460.443,1243.12Z" transform="translate(-455.969 -1235.84)"/>
</svg>
