<svg xmlns="http://www.w3.org/2000/svg" width="11.031" height="8.938" viewBox="0 0 11.031 8.938">
  <defs>
    <style>
      .cls-1 {
        fill: #fff;
        fill-rule: evenodd;
        opacity: 0.33;
      }
    </style>
  </defs>
  <path id="Heart_Favorite_small" data-name="Heart / Favorite small" class="cls-1" d="M694,664.717s-3.764-2.918-4.361-3.923a3.008,3.008,0,0,1-.579-2.559,3.13,3.13,0,0,1,.9-1.575,2.66,2.66,0,0,1,1.822-.646c2.129,0,2.166,1.162,2.166,1.162a0.482,0.482,0,0,0,.9-0.018,3.027,3.027,0,0,1,2.3-1.158,2.847,2.847,0,0,1,1.878.673,3.092,3.092,0,0,1,.892,1.562,3.012,3.012,0,0,1-.58,2.559c-0.6,1-4.361,3.923-4.361,3.923A0.651,0.651,0,0,1,694,664.717Z" transform="translate(-688.969 -656)"/>
</svg>
