<svg xmlns="http://www.w3.org/2000/svg" width="14" height="10" viewBox="0 0 14 10">
  <defs>
    <style>
      .cls-1 {
        fill: #fff;
        fill-rule: evenodd;
        opacity: 0.33;
      }
    </style>
  </defs>
  <path id="Image_2" data-name="Image 2" class="cls-1" d="M303,665H291a1,1,0,0,1-1-1v-8a1,1,0,0,1,1-1h12a1,1,0,0,1,1,1v8A1,1,0,0,1,303,665Zm0-8a1,1,0,0,0-1-1H292a1,1,0,0,0-1,1v6a1,1,0,0,0,1,1h10a1,1,0,0,0,1-1v-6Zm-8,2.582c1.012,0.12,1.971,2.114,1.971,2.114s2.451-3.806,2.824-3.625a15.155,15.155,0,0,1,2.185,4.712l-9.964.061S293.986,659.461,295,659.582Zm-0.639-.54a0.674,0.674,0,1,1,.674-0.674A0.673,0.673,0,0,1,294.359,659.042Z" transform="translate(-290 -655)"/>
</svg>
