<svg xmlns="http://www.w3.org/2000/svg" width="11" height="11" viewBox="0 0 11 11">
  <defs>
    <style>
      .cls-1 {
        fill: #fff;
        fill-rule: evenodd;
        opacity: 0.33;
      }
    </style>
  </defs>
  <path id="Video" class="cls-1" d="M291,1086h9a1,1,0,0,1,1,1v9a1,1,0,0,1-1,1h-9a1,1,0,0,1-1-1v-9A1,1,0,0,1,291,1086Zm2,1h5v4h-5v-4Zm0,5h5v4h-5v-4Zm-1.5-5a0.5,0.5,0,1,1-.5.5A0.5,0.5,0,0,1,291.5,1087Zm0,2a0.5,0.5,0,1,1-.5.5A0.5,0.5,0,0,1,291.5,1089Zm0,2a0.5,0.5,0,1,1-.5.5A0.5,0.5,0,0,1,291.5,1091Zm0,2a0.5,0.5,0,1,1-.5.5A0.5,0.5,0,0,1,291.5,1093Zm0,2a0.5,0.5,0,1,1-.5.5A0.5,0.5,0,0,1,291.5,1095Zm8-8a0.5,0.5,0,1,1-.5.5A0.5,0.5,0,0,1,299.5,1087Zm0,2a0.5,0.5,0,1,1-.5.5A0.5,0.5,0,0,1,299.5,1089Zm0,2a0.5,0.5,0,1,1-.5.5A0.5,0.5,0,0,1,299.5,1091Zm0,2a0.5,0.5,0,1,1-.5.5A0.5,0.5,0,0,1,299.5,1093Zm0,2a0.5,0.5,0,1,1-.5.5A0.5,0.5,0,0,1,299.5,1095Z" transform="translate(-290 -1086)"/>
</svg>
